# xmcd CD database file
#
# Track frame offsets:
#	200
#	13012
#	33295
#	49160
#	65720
#	82080
#	96420
#	114215
#	131242
#	146812
#	165207
#	179050
#	199082
#
# Disc length: 2849 seconds
#
# Revision: 2
# Processed by: cddbd v1.4PL0 Copyright (c) Steve Scherf et al.
# Submitted via: CDex 1.50Beta7
#
DISCID=bb0b1f0d
DTITLE=Jim Suhler and Monkey Beat - Radio Mojo
DYEAR=1993
DGENRE=Blues
TTITLE0=Where Were You When the Lights Went Out¿
TTITLE1=Doncha Hang Around My Door
TTITLE2=Radio Mojo
TTITLE3=Devil's Hand
TTITLE4=Oh, Hannah
TTITLE5=I Wonder
TTITLE6=Diggin' Out the Dog
TTITLE7=Ain't Comin' Home Tonight
TTITLE8=Beggin' You, Please
TTITLE9=I Know a Secret
TTITLE10=Pickin' the Blues
TTITLE11=I Just Got to Know
TTITLE12=If I Could See the Future
EXTD=YEAR: 1993
EXTT0=
EXTT1=
EXTT2=
EXTT3=
EXTT4=
EXTT5=
EXTT6=
EXTT7=
EXTT8=
EXTT9=
EXTT10=
EXTT11=
EXTT12=
PLAYORDER=
